<svg id="Layer_1" data-name="Layer 1" xmlns="http://www.w3.org/2000/svg" viewBox="0 0 790.97 264.88"><defs><style>.cls-1{fill:#243242;}.cls-2{fill:#df5c26;}.cls-3{fill:#191919;}.cls-4{fill:#0b0606;}.cls-5{fill:#767676;}.cls-6{fill:#989898;}.cls-7{fill:#272626;}.cls-8{fill:#97bcbc;}.cls-9{fill:#fff490;}.cls-10{fill:#eef1f4;}.cls-11{fill:#2b2c2b;}.cls-12{fill:#81c2dc;}.cls-13{fill:#231f20;}.cls-14{fill:#bf5142;}.cls-15{fill:#711914;}.cls-16{fill:#d87d7c;}.cls-17{fill:#1d181d;}.cls-18{opacity:0.5;}.cls-19,.cls-21{fill:#fff;}.cls-20{fill:#220d0d;}.cls-21{opacity:0.7;isolation:isolate;}</style></defs><path class="cls-1" d="M1269.4,631c0,7.3-175.85,13.21-392.77,13.21S483.85,638.33,483.85,631s175.86-13.21,392.78-13.21S1269.4,623.74,1269.4,631Z" transform="translate(-481.41 -379.36)"/><path class="cls-2" d="M1266,589c-2.52-.82-2.16-8.06-2-19.2,7.74,3.08.3-35.11-6.53-51.23-12.08-28.48-28.48-63.86-218.35-69.9-69-40.57-150.17-82-239.93-65.6s-202,58.69-240.79,73.36-50.06,6-57.83,41.43-25,51.79-17.25,73.36,38,28.49,87.17,32.8,387.51,1.73,473-.86S1308.31,602.78,1266,589Z" transform="translate(-481.41 -379.36)"/><path class="cls-3" d="M622.32,497a73.37,73.37,0,0,1,73.37,73.36c0,2.3.45,17.65.94,35.93-60.85-.16-109.63-.83-126.08-2.27-7.8-.69-15.11-1.44-21.93-2.3.15-15.65.35-28.45.35-31.36A73.35,73.35,0,0,1,622.32,497Z" transform="translate(-481.41 -379.36)"/><path class="cls-3" d="M1091.82,497a73.37,73.37,0,0,1,73.36,73.36c0,2,.16,15.87.58,31.36-38.9,1.17-83.27.26-122.27,1.44-6.9.21-15.47.42-25.4.62.15-16.57.37-30.38.37-33.42A73.37,73.37,0,0,1,1091.82,497Z" transform="translate(-481.41 -379.36)"/><circle class="cls-4" cx="1092.58" cy="571.59" r="62.58" transform="translate(-197.06 1123.47) rotate(-76.66)"/><path class="cls-5" d="M1045.26,572.93a48.34,48.34,0,1,0,48.34-48.34A48.35,48.35,0,0,0,1045.26,572.93Zm8.88,14.66,6.12-1-5,3.65C1054.83,589.39,1054.47,588.49,1054.14,587.59Zm-1.92-6.77a42.81,42.81,0,0,1-.76-7.89,41.83,41.83,0,0,1,.74-7.72l20.55,3.28L1079,573l-6.25,4.53Zm79.49,10-5.81-4.21,7.11,1.14C1132.61,588.79,1132.18,589.82,1131.71,590.82Zm-18.31-13.27-6.25-4.53,6.25-4.53,21.58-3.44a42.7,42.7,0,0,1,.76,7.88A42,42,0,0,1,1135,581Zm19.67-19.27-7.17,1.14,5.87-4.26C1132.25,556.18,1132.68,557.22,1133.07,558.28Zm-77.91-2.55,5.09,3.69-6.18-1C1054.41,557.52,1054.76,556.61,1055.16,555.73Zm14.37-17.36,12.38,17.07,1.22,7.63-7.63-1.21-17-12.3A42.23,42.23,0,0,1,1069.53,538.37Zm6.09-3.51c.92-.44,1.86-.84,2.82-1.22l1,6.56Zm18-4.07a42.85,42.85,0,0,1,7.39.68l-3.38,21.22-4.53,6.25-4.54-6.25-3.35-21.06A42.38,42.38,0,0,1,1093.6,530.79Zm14.18,2.5q1.54.54,3,1.2l-4.14,5.71Zm20.52,15.77-17.65,12.8-7.63,1.21,1.22-7.62L1117,537.88A42.1,42.1,0,0,1,1128.3,549.06Zm-11.41,59-12.65-17.44L1103,583l7.63,1.21,17.57,12.74A42.65,42.65,0,0,1,1116.89,608Zm-6.18,3.37c-1,.43-2,.81-3,1.17l-1.07-6.74Zm-17.11,3.66a43,43,0,0,1-8.39-.84l3.33-20.88,4.54-6.25,4.53,6.25,3.35,21A43.41,43.41,0,0,1,1093.6,615.07Zm-15.13-2.85c-.94-.36-1.86-.76-2.75-1.18l3.77-5.2Zm-19.85-15.79,16.88-12.25,7.63-1.21-1.22,7.63-12.29,16.95A42.45,42.45,0,0,1,1058.62,596.43Z" transform="translate(-481.41 -379.36)"/><path class="cls-6" d="M1082.48,606.08l-5.28-2.19,7.21-9.94Zm21.2,0L1101.75,594l7.21,9.94ZM1086.05,590l1.88-11.83L1076.12,580l9.69-7-9.69-7,11.81,1.88L1086.05,556l7,9.7,7-9.69-1.89,11.82,11.84-1.88-9.71,7,9.7,7-11.83-1.88,1.89,11.83-7-9.7Zm-23.84-1.09-2.18-5.28,12.12-1.93Zm61.74,0-9.93-7.21,12.11,1.94ZM1114,564.35l9.94-7.21,2.19,5.27Zm-41.87,0L1060,562.41l2.18-5.27Zm12.26-12.26-7.21-9.94,5.28-2.19Zm17.35,0,1.93-12.13,5.27,2.18Z" transform="translate(-481.41 -379.36)"/><path class="cls-7" d="M1092.58,517.8a60.14,60.14,0,0,0-60,56.94c-.06-1.07-.17-2.14-.17-3.24a60.19,60.19,0,0,1,120.37,0c0,1.1-.11,2.16-.16,3.24A60.13,60.13,0,0,0,1092.58,517.8Z" transform="translate(-481.41 -379.36)"/><path class="cls-7" d="M1092.58,620.08A48.66,48.66,0,0,0,1141.15,574c0,.87.13,1.73.13,2.62a48.7,48.7,0,1,1-97.39,0c0-.88.08-1.75.13-2.62A48.65,48.65,0,0,0,1092.58,620.08Z" transform="translate(-481.41 -379.36)"/><circle class="cls-4" cx="619.62" cy="571.57" r="62.58" transform="translate(-560.89 663.26) rotate(-76.66)"/><path class="cls-5" d="M571.29,571.51a48.34,48.34,0,1,0,48.34-48.34A48.35,48.35,0,0,0,571.29,571.51Zm8.88,14.66,6.12-1-5,3.65C580.86,588,580.51,587.07,580.17,586.17Zm-1.91-6.77a42.81,42.81,0,0,1-.76-7.89,41.83,41.83,0,0,1,.74-7.72l20.54,3.28L605,571.6l-6.26,4.53Zm79.48,10-5.81-4.21,7.11,1.14C658.65,587.37,658.22,588.4,657.74,589.4Zm-18.3-13.27-6.26-4.53,6.26-4.53L661,563.63a42.7,42.7,0,0,1,.76,7.88,42,42,0,0,1-.79,8.06Zm19.66-19.27L651.93,558l5.87-4.26C658.28,554.76,658.71,555.8,659.1,556.86Zm-77.91-2.55,5.1,3.69-6.18-1C580.44,556.1,580.79,555.19,581.19,554.31ZM595.56,537,607.94,554l1.22,7.63-7.63-1.21-16.95-12.3A42.19,42.19,0,0,1,595.56,537Zm6.09-3.51c.92-.44,1.87-.84,2.82-1.22l1,6.56Zm18-4.07a42.76,42.76,0,0,1,7.39.68l-3.38,21.22-4.53,6.25-4.54-6.25-3.35-21.06A42.38,42.38,0,0,1,619.63,529.37Zm14.18,2.5q1.55.54,3,1.2l-4.14,5.71Zm20.53,15.77-17.65,12.8-7.63,1.21,1.22-7.62L643,536.46A42.25,42.25,0,0,1,654.34,547.64Zm-11.42,59-12.65-17.44-1.21-7.63,7.62,1.21,17.57,12.74A42.5,42.5,0,0,1,642.92,606.62ZM636.74,610c-1,.43-2,.81-3,1.17l-1.08-6.74Zm-17.11,3.66a42.83,42.83,0,0,1-8.38-.84l3.32-20.88,4.54-6.25,4.53,6.25L627,613A43.41,43.41,0,0,1,619.63,613.65ZM604.5,610.8c-.94-.36-1.85-.76-2.75-1.18l3.77-5.2ZM584.66,595l16.88-12.25,7.62-1.21-1.22,7.63-12.29,17A42.26,42.26,0,0,1,584.66,595Z" transform="translate(-481.41 -379.36)"/><path class="cls-6" d="M608.51,604.66l-5.28-2.19,7.21-9.94Zm21.2,0-1.92-12.13,7.21,9.94Zm-17.63-16.09L614,576.74l-11.81,1.88,9.69-7-9.69-7L614,566.44l-1.88-11.82,7,9.7,7-9.69-1.89,11.82,11.84-1.88-9.71,7,9.7,7-11.82-1.88,1.88,11.83-7-9.7Zm-23.84-1.09-2.18-5.28,12.12-1.93Zm61.74,0-9.93-7.21,12.11,1.94ZM640,562.93l9.94-7.21,2.19,5.27Zm-41.87,0L586.06,561l2.18-5.27Zm12.27-12.26-7.21-9.94,5.28-2.19Zm17.34,0,1.93-12.13,5.27,2.18Z" transform="translate(-481.41 -379.36)"/><path class="cls-7" d="M619.63,517.8a60.12,60.12,0,0,0-60,56.94c-.06-1.07-.17-2.14-.17-3.24a60.19,60.19,0,0,1,120.37,0c0,1.1-.11,2.16-.17,3.24A60.13,60.13,0,0,0,619.63,517.8Z" transform="translate(-481.41 -379.36)"/><path class="cls-7" d="M619.63,620.08A48.66,48.66,0,0,0,668.2,574c0,.87.13,1.73.13,2.62a48.7,48.7,0,0,1-97.4,0c0-.88.09-1.75.14-2.62A48.65,48.65,0,0,0,619.63,620.08Z" transform="translate(-481.41 -379.36)"/><path class="cls-3" d="M1242,527c-5.48-24.93-27-37.05-65.77-37.05-10.81,0-21.49.91-30.07,1.63l-2.59.22-.19,1.68c21.87,6.74,39.06,33,39.23,33.3l.26.41h.48c.1,0,9.63-.22,21.45-.22,10.91,0,26.06.18,36.28,1.07l1.17.1Z" transform="translate(-481.41 -379.36)"/><path class="cls-8" d="M1241.13,527.17c-19.85-1.72-57.83-.86-57.83-.86s-17.25-26.76-39.7-33.66C1174.67,490.06,1231.63,484,1241.13,527.17Z" transform="translate(-481.41 -379.36)"/><path class="cls-9" d="M1203.71,526.09c-11.12-11.88-22.61-23.47-33.91-35.16,4.53-.13,9.15-.15,13.77,0a449.12,449.12,0,0,1,36.18,35.25C1214.28,526.12,1208.76,526.09,1203.71,526.09Z" transform="translate(-481.41 -379.36)"/><path class="cls-9" d="M1191.6,491.53c22.91,2.29,44.07,10.82,49.53,35.64-4.25-.37-9.34-.61-14.69-.78A456.53,456.53,0,0,0,1191.6,491.53Z" transform="translate(-481.41 -379.36)"/><path class="cls-10" d="M1239,520.93l.25,0a46.48,46.48,0,0,1,1.86,6.21c-19.85-1.72-57.83-.86-57.83-.86s-17.25-26.76-39.7-33.66c4.88-.41,10.4-.9,16.27-1.27C1184,506.16,1211.25,515.49,1239,520.93Z" transform="translate(-481.41 -379.36)"/><path class="cls-11" d="M1215.38,569.77h48.68c.67,6.4,1.26,12.82,2,19.2l-59.08,2.44c-2.45.1-3.07-2.12-1.39-5Z" transform="translate(-481.41 -379.36)"/><path class="cls-11" d="M1216.29,565l9.61-16.28c1.68-2.85,5-5.24,7.48-5.34l27-1.12a197.68,197.68,0,0,0,1.21,22.74Z" transform="translate(-481.41 -379.36)"/><path class="cls-11" d="M685.32,450.07c0-.25-15.28-.75-15.53-.75-22.4,0,88.6-57.36,175.48-57.36,52.36,0,142.12,50.63,150.75,55.53.22.12,0,.5,0,.75Z" transform="translate(-481.41 -379.36)"/><path class="cls-12" d="M763.94,409.89l-1.42-3.69c26.91-7.79,56.44-13.53,83.56-13.53,51.07,0,138.61,49.38,147,54.15.21.12,0,.49,0,.74l-212.89,1.25C774.4,436,769,423.1,763.94,409.89Z" transform="translate(-481.41 -379.36)"/><path class="cls-12" d="M755.62,392.49c-.49.85-.74,2.08-1.66,2.39-33.25,11.46-97.69,31.27-148.9,52.21H583.35C624.32,432,691.66,408.22,755.62,392.49Z" transform="translate(-481.41 -379.36)"/><path class="cls-12" d="M896.85,386c50.52,11.51,100.51,37.87,142.85,62.64l-18-.25C964.34,405.94,891.29,390,896.85,386Z" transform="translate(-481.41 -379.36)"/><path class="cls-13" d="M824.28,594.06H986.53c16.84,0,17-21.7,17.22-51.71.06-7.89.12-16.06.48-24.65,1.74-41.87,1.68-49.41-10.79-70.36l-.75.44c12.34,20.73,12.4,28.24,10.67,69.88-.36,8.61-.42,16.78-.48,24.69-.22,29.52-.37,50.84-16.35,50.84H824.27c-18.25,0-35.25-14.08-50.52-41.85-13.26-24.11-20.86-50.92-22.87-58.56C747,478.15,748,467,753.74,459.51c5.17-6.71,14.31-10.26,26.43-10.26v-.87c-12.39,0-21.77,3.67-27.12,10.61-5.91,7.67-6.92,19.11-3,34,2,7.66,9.63,34.55,22.94,58.75C788.43,579.83,805.68,594.06,824.28,594.06Z" transform="translate(-481.41 -379.36)"/><path class="cls-14" d="M527.38,466.76l63,24.16-38,24.17-53.51-7.77S501.5,467.62,527.38,466.76Z" transform="translate(-481.41 -379.36)"/><path class="cls-15" d="M516.56,494.28c-5.08-.17-10.14-.27-15.19-.6,2.63-9.56,8-21.35,18.62-25.43,8.58,9.08,16.86,18.52,24.62,28.35C535.28,495.63,525.91,494.58,516.56,494.28Z" transform="translate(-481.41 -379.36)"/><path class="cls-16" d="M518.83,499.18c10,.57,19.92,1.68,29.87,2.67,2.66,3.51,5.26,7,7.77,10.66l-4.05,2.58-53.51-7.77a71.88,71.88,0,0,1,1.34-8.94C506.4,498.77,512.6,498.83,518.83,499.18Z" transform="translate(-481.41 -379.36)"/><path class="cls-17" d="M582.62,489.19,524.75,467a22.34,22.34,0,0,1,2.63-.24l63,24.16-34.44,21.92Z" transform="translate(-481.41 -379.36)"/><g class="cls-18"><path class="cls-19" d="M1257.52,529.64c-12.08-24.88-35.77-67.29-237.33-63.08,0-13.61-119.1-90.08-208.86-75.75s-130.48,37.7-188.14,63.87c-37.24,16.9-71.54,13-103.57,39.7-18.91,15.77-36.64,55-38.06,68.84-1.75-18.05,12.29-34.47,19.07-65.39,7.77-35.39,19-26.76,57.83-41.43s151-57,240.79-73.36,170.89,25,239.93,65.59c189.87,6,206.27,41.43,218.35,69.9,6.8,16,12.55,47.27,8.82,50.6C1266.08,556.47,1263.58,542.1,1257.52,529.64Z" transform="translate(-481.41 -379.36)"/></g><g class="cls-18"><path class="cls-19" d="M1018.52,467.41s-220.66.07-384.9,20.16c-24.72-13.9-73.08-8.34-73.08-8.34s106.54-40.76,443.85-25.68C1007.92,460.46,1018.52,467.41,1018.52,467.41Z" transform="translate(-481.41 -379.36)"/></g><g class="cls-18"><path class="cls-19" d="M1083.93,483.21c31.55-2.18,93.59,13.48,113.94,76.05l-31.82-6.19c-21-56.11-57.65-58.35-81-56.74-36.8,2.55-61.88,32.66-66.63,62.62C1015.51,521.61,1047.13,485.76,1083.93,483.21Z" transform="translate(-481.41 -379.36)"/></g><g class="cls-18"><polygon class="cls-19" points="531.87 193.56 216.86 172.84 307.49 197.26 531.87 193.56"/></g><g class="cls-18"><polygon class="cls-19" points="733.83 188.09 684.34 178.3 685.95 192.76 733.83 188.09"/></g><g class="cls-18"><polygon class="cls-19" points="784.61 209.61 684.32 212.25 709.66 218.58 790.01 212.02 784.61 209.61"/></g><g class="cls-18"><polygon class="cls-19" points="781.23 185.82 729.27 185.74 741.33 189.85 784.84 188.43 781.23 185.82"/></g><ellipse class="cls-13" cx="293.69" cy="101.12" rx="22.71" ry="4.58"/><path class="cls-2" d="M755.12,479.5c0,1.69,8.94,3.05,20,3.05s20-1.36,20-3.05-8.94-3-20-3S755.12,477.82,755.12,479.5Z" transform="translate(-481.41 -379.36)"/><path class="cls-20" d="M1004.34,454.66c-1.76,9-20.6,12.8-29.52,11a16.54,16.54,0,0,1,6.4-32.46C990.13,435,1006.11,445.69,1004.34,454.66Z" transform="translate(-481.41 -379.36)"/><g class="cls-18"><path class="cls-19" d="M966.9,440.48a14.18,14.18,0,0,0,10.44,8.71c5.56,1.1,15.54-.33,21.29-4.1-4.23-5.15-12.06-9.59-17.2-10.61A14.23,14.23,0,0,0,966.9,440.48Z" transform="translate(-481.41 -379.36)"/></g><path class="cls-21" d="M900.65,448.1l48.71-.28L965.21,432c-9.54-4.79-20.86-10.22-33-15.46Z" transform="translate(-481.41 -379.36)"/><path class="cls-21" d="M840.45,448.46l18.62-.11,43.55-43.55c-4.67-1.64-9.33-3.17-14-4.55Q864.57,424.36,840.45,448.46Z" transform="translate(-481.41 -379.36)"/><path class="cls-21" d="M846.08,392.67a250.28,250.28,0,0,0-41,3.7l-33.26,33.26q4,9.64,8.34,19.18l30.29-.17,54.18-54.19A110.09,110.09,0,0,0,846.08,392.67Z" transform="translate(-481.41 -379.36)"/><path class="cls-3" d="M856.85,497.07a7.87,7.87,0,0,0-6.91-5.17H823.89a32,32,0,0,0,2,11.21c5,13.87,19.27,21.67,41.9,26.63Z" transform="translate(-481.41 -379.36)"/><g class="cls-18"><path class="cls-19" d="M849.94,491.89a7.88,7.88,0,0,1,6.91,5.18l10.89,32.67c1.52.37-7.66-35.91-7.66-35.91a7.87,7.87,0,0,0-6.9-5.18s-28.67,2.16-28.57,3.24Z" transform="translate(-481.41 -379.36)"/></g></svg>