<svg id="Layer_1" data-name="Layer 1" xmlns="http://www.w3.org/2000/svg" viewBox="0 0 512.27 257.01"><defs><style>.cls-1{fill:#fff;}.cls-2{fill:#c1e8fb;}</style></defs><path class="cls-1" d="M1155.48,433c-13.45-9-34.41-19-50.74-15.34-6-13.76-17.3-25.09-31.22-32.37-16.88-8.84-36.19-10.47-54.33-6-9.12-34.48-62.29-48.4-95.14-42.57C894.19,342,864.42,362.22,848.43,388c-1.94,3.12-4,6.82-6,10.87-17.48-9.63-45.49-7.28-62.61-3.57-18.52,4-33.58,12.19-45.14,27.63a93.47,93.47,0,0,0-16.12,33.59,55.08,55.08,0,0,0-30.68,5.6c-17.93,9.38-27.38,31-18.21,49.93,14.48,29.93,62.17,37.3,93.11,23.75,9.22,12.66,23.52,23.24,34.4,29.72,27.16,16.15,58.43,25.77,90,26.82,42,1.39,88.24-12.06,114.13-45.43,9,4.75,19.77,7.69,26.09,9.52,22.23,6.41,45.17,10.66,68.3,8.24,33.94-3.55,61.9-19.07,75.36-51.52C1182.54,485.5,1182.53,451.14,1155.48,433Z" transform="translate(-666.06 -335.46)"/><path class="cls-2" d="M1175,458.21a90.9,90.9,0,0,1-1.43,15.41c-6,33.1-33.42,57.93-64.39,68.59-15.45,5.32-31.47,6.42-47.67,5.62-11.36-.56-26.67-2.2-31.94-14.06a1.08,1.08,0,0,1,.67-1.39c2.54-.88,5.13-1.58,7.36-3.07,5.71-3.8,13.48-8.51,18.09-15.27-14,6.07-27.79,12.55-43.27,13.47-16.5,1-32.29-4.52-48.38-7.21a46.23,46.23,0,0,0,18.34,15.36,1.09,1.09,0,0,1-.38,2.05c-12.67,2.41-24.67,7.2-36.74,11.59a176.67,176.67,0,0,1-35.89,9.28c-38.11,5.4-77.27-1.41-112.43-16.76-14.19-6.2-28-14.27-38.83-25.5A67.67,67.67,0,0,1,740,482a87.53,87.53,0,0,0-2.25,16.73c-.2,7.34.69,15.68,6.1,21.17a1.1,1.1,0,0,1-.33,1.84,51.23,51.23,0,0,1-29.31-.45c-15.32-4.62-30.94-15.72-36.46-31.32a27.22,27.22,0,0,1,.86-21.05c.08-.16.18-.31.26-.47-11.82,10.91-16.76,28.14-9.27,43.62,14.48,29.93,62.17,37.3,93.11,23.75,9.22,12.66,23.52,23.24,34.4,29.72,27.16,16.15,58.43,25.77,90,26.82,42,1.39,88.24-12.06,114.13-45.43,9,4.75,19.77,7.69,26.09,9.52,22.23,6.41,45.17,10.66,68.3,8.24,33.94-3.55,61.9-19.07,75.36-51.52C1178.36,495.6,1181,475.31,1175,458.21Z" transform="translate(-666.06 -335.46)"/></svg>