<svg id="Layer_1" data-name="Layer 1" xmlns="http://www.w3.org/2000/svg" viewBox="0 0 78.98 42.28"><defs><style>.cls-1{fill:#fff;}.cls-2{fill:#daf0f8;}</style></defs><path class="cls-1" d="M1112.1,601.58c-1.74,3-5.76,3.64-9.23,3.93-5.73.49-11.77.92-16.95-1.57a4.57,4.57,0,0,0-1.77-.62,4.4,4.4,0,0,0-1.86.49,45.31,45.31,0,0,1-18.07,4.07,26.48,26.48,0,0,1-17.9-6.73c-3.67.23-7.82.28-10.45-2.3a7.26,7.26,0,0,1-2-5.52A8.74,8.74,0,0,1,1034,592a7.94,7.94,0,0,1,.48-1.5,9,9,0,0,1,1.62-2.47,11.06,11.06,0,0,1,5.12-3.08,11.91,11.91,0,0,1,8.66.83,10.08,10.08,0,0,1,5-7.42,11.26,11.26,0,0,1,9.43-.36c.79-4.76,4.81-8.42,9.22-10.38a23.05,23.05,0,0,1,22.52,2.08,19.11,19.11,0,0,1,6,7.34,17.57,17.57,0,0,1,.54,14,11,11,0,0,1,8,2.7,7.38,7.38,0,0,1,1.64,2.45,4.65,4.65,0,0,1,.2.52A6.06,6.06,0,0,1,1112.1,601.58Z" transform="translate(-1033.83 -565.6)"/><path class="cls-2" d="M1112.1,601.58c-1.74,3-5.76,3.64-9.23,3.93-5.73.49-11.77.92-16.95-1.57a4.57,4.57,0,0,0-1.77-.62,4.4,4.4,0,0,0-1.86.49,45.31,45.31,0,0,1-18.07,4.07,26.48,26.48,0,0,1-17.9-6.73c-3.67.23-7.82.28-10.45-2.3a7.26,7.26,0,0,1-2-5.52A8.74,8.74,0,0,1,1034,592c4.88,3.44,12.18,3.32,16.73-.64,8.75,7.09,22.86,6.33,30.79-1.67,2.18,5.36,8.5,7.53,14.13,8.87,3.35.81,6.83,1.54,10.24,1a10.68,10.68,0,0,0,6.37-3.37,4.65,4.65,0,0,1,.2.52A6.06,6.06,0,0,1,1112.1,601.58Z" transform="translate(-1033.83 -565.6)"/><path class="cls-1" d="M1060.53,602.84c-1.94-.18-3.89-.21-5.83-.41a13.15,13.15,0,0,0,11.92,1.35C1064.57,603.64,1062.56,603.12,1060.53,602.84Z" transform="translate(-1033.83 -565.6)"/><path class="cls-1" d="M1072.24,600.38a49.09,49.09,0,0,0-11.43-.16,14.31,14.31,0,0,0,11.12.38C1072.12,600.51,1072.76,600.41,1072.24,600.38Z" transform="translate(-1033.83 -565.6)"/></svg>