<svg id="Layer_1" data-name="Layer 1" xmlns="http://www.w3.org/2000/svg" viewBox="0 0 1326.33 407.65"><defs><style>.cls-1{fill:#fff;}.cls-2{fill:#daf0f8;}</style></defs><path class="cls-1" d="M1616.17,748.89c-21.93,15-49.58,18.48-76.14,20.41-39.23,2.94-79,3.44-126.63-5.2-7.52,22.61-35,30.35-58.67,33.52a709.71,709.71,0,0,1-227-6.16c-85.31,46.41-258.56,33.8-351.44-8-3.05-1.36-6.11-2.77-9.1-4.41C756,789.14,741,796.66,726.58,800.73c-38.15,11-78.51,11-118.14,9.55-80.21-2.94-161.67-12.15-235.44-43.92-24.53-10.57-50.82-27.42-54.1-53.93-1.35-11.14,2.83-21.76,10.12-30.07a48.93,48.93,0,0,1,27.14-16,39.94,39.94,0,0,1-6.22-12.78A35.39,35.39,0,0,1,350.5,634c4.53-14.75,17.7-27.64,32.62-33.18,21.37-8,45-5,74.5,5-10.51-34.87,5.77-75.86,37.2-94.12s75.18-11.92,93.95,22.78A103.64,103.64,0,0,1,608,488.46c14.81-20.18,36.46-35.5,60.94-41.15,40.81-9.55,86.65,8.08,109,52.12,16.23-36.46,47.2-66.76,85.08-79.59s82.19-6.73,113.68,17.86,48,67.89,28.94,112.21c38-5.09,77.16-10.06,114.52-1.19s73.1,35,86.66,76.66c4.35-33.24,24.42-63.37,51.33-83.44s60-30.7,93.33-34.2c40.53-4.24,83.83,2.6,115.94,27.7a102.49,102.49,0,0,1,28.2,34.71,108.31,108.31,0,0,1,6.51,82.42,152.48,152.48,0,0,1,91.51-5.6c14.19,3.62,28.61,9.95,38.56,20.29a47.08,47.08,0,0,1,6.27,7.92,43.14,43.14,0,0,1,2.6,4.8C1652.23,704.06,1638.22,734,1616.17,748.89Z" transform="translate(-318.65 -413.33)"/><path class="cls-2" d="M1616.17,748.89c-21.93,15-49.58,18.48-76.14,20.41-39.23,2.94-79,3.44-126.63-5.2-7.52,22.61-35,30.35-58.67,33.52a709.71,709.71,0,0,1-227-6.16c-85.31,46.41-258.56,33.8-351.44-8-3.05-1.36-6.11-2.77-9.1-4.41C756,789.14,741,796.66,726.58,800.73c-38.15,11-78.51,11-118.14,9.55-80.21-2.94-161.67-12.15-235.44-43.92-24.53-10.57-50.82-27.42-54.1-53.93-1.35-11.14,2.83-21.76,10.12-30.07a31.8,31.8,0,0,0,9.5,12.77c9.61,7.63,22.27,10.23,34.37,12.44,28.88,5.2,58.39,9.32,87.45,5.54s58.11-16.51,76.08-39.69c81.12,61.79,205.14,58.68,283-7.17,25.55,29.84,66.2,41.37,104.75,49.06,35.21,7.07,71.34,12.21,107,7.75s71-19.56,93.21-48c40.53,15.44,82.25,31.15,125.61,30.87s89.48-20.24,108.36-59.36c36.24,50.31,105.43,62.52,167.44,64.22,40.7,1.07,88.75-5.09,112.6-35.61a43.14,43.14,0,0,1,2.6,4.8C1652.23,704.06,1638.22,734,1616.17,748.89Z" transform="translate(-318.65 -413.33)"/><path class="cls-2" d="M664,574.82a66.89,66.89,0,0,0,99.4,9.21c16.35,20.85,43.55,33.46,69.81,30s50-24.29,54.64-50.37c-14.77,19.39-41.8,27-65.73,22.31s-44.73-20.08-60.2-38.92c-1.51-1.84-3.35-3.9-5.72-3.79-1.88.09-3.38,1.52-4.7,2.85-11.55,11.64-24.24,22.7-39.51,28.68S678.35,580.86,664,574.82Z" transform="translate(-318.65 -413.33)"/><path class="cls-1" d="M639.17,763.22c-15.92-1-31.77,1.09-47.61,1.84,29.88,12.82,66.73,17.55,96.19,1.23C674.36,766,654.65,764.68,639.17,763.22Z" transform="translate(-318.65 -413.33)"/><path class="cls-1" d="M552.35,768c-12.43-6.7-26.14-10-40.05-11.72,11.17,8.63,25.27,12.57,39.29,12.46C553,768.69,554.69,769,552.35,768Z" transform="translate(-318.65 -413.33)"/><path class="cls-1" d="M1311.36,760c-16.61-.58-33.1,2.09-49.66,2.82,27.39,12.14,60.86,12.76,88.34.71C1341.23,762.43,1323.34,760.58,1311.36,760Z" transform="translate(-318.65 -413.33)"/><path class="cls-1" d="M1371.92,732.32c-21-1.77-41.7,1.9-62.32,5.34,25,8.73,52.78,6.75,77-3.33C1392.45,732.65,1374.59,732.8,1371.92,732.32Z" transform="translate(-318.65 -413.33)"/><path class="cls-1" d="M1225,736.47c12.43,5.32,26.29,5.89,39.33,2.58A94.63,94.63,0,0,0,1225,736.47Z" transform="translate(-318.65 -413.33)"/></svg>