<svg id="Layer_1" data-name="Layer 1" xmlns="http://www.w3.org/2000/svg" viewBox="0 0 1242.68 349.83"><defs><style>.cls-1{fill:#fff;}.cls-2{fill:#daf0f8;}</style></defs><path class="cls-1" d="M1544.65,576.28c-19.8,25.85-47.68,26.39-91.7,22.42-7.16,14.63-20.62,25.54-35.45,32.3s-31.08,9.78-47.22,12c-27.69,3.82-56.17,5.47-83.81,2.2-11.93,16-33.72,24.46-53.78,21.42a64,64,0,0,1-27.87-11.54C1134.22,694,1022.89,669,955.17,636.76c-9.09,8.88-20.12,15.92-31.45,21.84-53.63,27.72-119.35,30.95-175.43,8.61-17.35-6.91-34.3-16.92-47.83-29.85-23.23,17.33-52.68,26.62-81.84,29.78-65.09,7.11-132.75-13.93-182.34-56.71C426,601.56,416,591,413.07,577.71c-.13-.63-.22-1.3-.35-1.94a362.79,362.79,0,0,1-74.63-12.15c-12.69-3.46-27.52-10.35-28.37-23.52a17.47,17.47,0,0,1,1.72-8.47,23.81,23.81,0,0,1,8.84-9.72,26.23,26.23,0,0,1,5.43-2.77c8.78-3.27,18.56-2.68,27.89-2-3.33-14,4.82-28.85,16.6-37.19a57.23,57.23,0,0,1,15.66-7.8c8.06-2.82,16.65-4.25,25.11-5.29,24.95-2.93,52.52-1.79,71.78,14.36,16.72-43.2,51-69.73,87.94-74.74s75.22,10.05,101.83,36.25a109,109,0,0,1,12.06,14.1,91.34,91.34,0,0,1,10.68-5.16c25.59-10.39,57-8.89,78.51,8.45,12.72,10.34,20.76,24.83,27.07,40.15,1.14,1.23-12-86.52,71.53-120.09,36-14.46,77.85-9.32,111,10.57,28.89-32.72,69.61-54.26,112.61-58,64.08-5.59,130,28.72,162.15,84.46,11.47-7.49,27.24-6.43,40.23.31a54,54,0,0,1,26.77,33.14c22.22-19.46,53.32-19.75,76.93-6.06a72.64,72.64,0,0,1,14.61,11.29c15,14.76,24,35.78,23.31,56.88,22-17.85,54.77-20.83,79.87-8a60.12,60.12,0,0,1,5.46,3.09,63.63,63.63,0,0,1,16.26,14.58,51.64,51.64,0,0,1,8.54,15.8C1554.32,550.9,1552.71,565.67,1544.65,576.28Z" transform="translate(-309.7 -332.11)"/><path class="cls-2" d="M1544.65,576.28c-19.8,25.85-47.68,26.39-91.7,22.42-7.16,14.63-20.62,25.54-35.45,32.3s-31.08,9.78-47.22,12c-27.69,3.82-56.17,5.47-83.81,2.2-11.93,16-33.72,24.46-53.78,21.42a64,64,0,0,1-27.87-11.54C1134.22,694,1022.89,669,955.17,636.76c-9.09,8.88-20.12,15.92-31.45,21.84-53.63,27.72-119.35,30.95-175.43,8.61-17.35-6.91-34.3-16.92-47.83-29.85-23.23,17.33-52.68,26.62-81.84,29.78-65.09,7.11-132.75-13.93-182.34-56.71C426,601.56,416,591,413.07,577.71c-.13-.63-.22-1.3-.35-1.94a362.79,362.79,0,0,1-74.63-12.15c-12.69-3.46-27.52-10.35-28.37-23.52a17.47,17.47,0,0,1,1.72-8.47,23.81,23.81,0,0,1,8.84-9.72c5.58,9.08,18.3,12.81,29.43,14.75,24.31,4.28,50.13,6.81,72.2-1.79A226.43,226.43,0,0,0,497.58,571c15.49,4.08,31.61,6.5,47.54,4.65s31.64-8.17,42.87-18.35c16.61,21.44,44.53,30.66,71.31,34.92,19.83,3.15,40.2,4.2,59.87.35s38.76-12.93,53.92-27.83c33.1,15.41,70.89,22.9,106.57,15.08s68.58-32.47,78-68.92c22.77,12,47.05,22.73,72.77,24s53.36-8.85,66-33.48c28.89,26.25,63,48.23,101.37,55.47s81.26-2.26,108.88-31.69a229.79,229.79,0,0,0,110.75,37.6c22.24,1.52,45.34-.39,65.22-10.5,18.67-9.44,34-27.08,37.19-47.53a60.12,60.12,0,0,1,5.46,3.09,63.63,63.63,0,0,1,16.26,14.58,51.64,51.64,0,0,1,8.54,15.8C1554.32,550.9,1552.71,565.67,1544.65,576.28Z" transform="translate(-309.7 -332.11)"/><path class="cls-1" d="M1239.92,609.89c15.25,7.05,33.12,5.51,47.95-1.85C1271.83,606.84,1255.87,608.36,1239.92,609.89Z" transform="translate(-309.7 -332.11)"/><path class="cls-1" d="M1233.67,591.85c-12.36-3.69-22.17-4.23-34.65-5.84,11.5,8.47,26.38,11,40.29,8.61C1244.56,594.24,1235.63,592.66,1233.67,591.85Z" transform="translate(-309.7 -332.11)"/><path class="cls-1" d="M1288.86,588.48c-8.26-.24-16.4,1.42-24.48,2.93a38.8,38.8,0,0,0,27.29-1.35C1297.9,587.93,1291.65,588.81,1288.86,588.48Z" transform="translate(-309.7 -332.11)"/><path class="cls-1" d="M595,632.38c-11.9-.75-23.8.52-35.69.32,20.63,10.39,48.51,14,68.31,0C616.81,634.58,605.81,633,595,632.38Z" transform="translate(-309.7 -332.11)"/><path class="cls-1" d="M537.19,616.2c10.28,4.85,22.24,5,33,1.92C559.3,615.33,549.07,615.1,537.19,616.2Z" transform="translate(-309.7 -332.11)"/><path class="cls-1" d="M887.62,639.72c-9.33.76-22,4.79-32.44,8.3,14.23,2.81,29.11-.91,41.18-8.73C899.21,637.85,889.18,639.68,887.62,639.72Z" transform="translate(-309.7 -332.11)"/></svg>