<svg id="Layer_1" data-name="Layer 1" xmlns="http://www.w3.org/2000/svg" viewBox="0 0 789.11 186.48"><defs><style>.cls-1{fill:none;}.cls-2,.cls-4{fill:#f3d00c;}.cls-3{fill:#6cbf02;}.cls-4{font-size:84.78px;font-family:CrimsonText-Bold, Crimson Text;font-weight:700;}.cls-5{font-size:21.23px;font-family:FuturaBT-Medium, Futura Md BT;font-weight:500;letter-spacing:1em;}.cls-6{letter-spacing:0.98em;}.cls-7{letter-spacing:1em;}</style></defs><rect class="cls-1" x="362.06" y="169.98" width="14.45" height="16.5"/><path class="cls-2" d="M55.77,357.28V355c-1.32,0-2.58-.07-3.83-.08A1.15,1.15,0,0,0,50.75,356c-.1.51.52,1.2,1.21,1.24C53.18,357.32,54.39,357.28,55.77,357.28Z" transform="translate(-36.38 -224.4)"/><path class="cls-2" d="M208.56,326.87v2c0,8.59,0,17.18,0,25.76a7.53,7.53,0,0,0,.89,4.34c.09.14,0,.37,0,.59h-52v-1.87c0-2.14,0-4.29,0-6.44a9.22,9.22,0,0,0-1.61-5.3,2.3,2.3,0,0,1-.51-1.14c0-2.56,0-5.13,0-7.63l1.3-.63-.11-1.89h-4.89a5.88,5.88,0,0,0,.05,1.8c.12.36.67.57.89.75v5.13c-1.35-.36-2.57-.77-3.82-1-4.1-.81-8.22-1.57-12.33-2.35L129,337.55c0-3.63-.1-7.14.11-10.68H158c-.21,1.17-.32,2.24-.59,3.27A2.15,2.15,0,0,1,155,332c-1.07-.1-2.15,0-3.22-.07a1.93,1.93,0,0,0-2,.87,13.62,13.62,0,0,0-1.3-.88c-1.66-.87-4.16.24-4.31,2-.13,1.58,0,3.19,0,5a52.43,52.43,0,0,0,6.14-.06V334h5.46a2.93,2.93,0,0,0,2.67-1.5,9.26,9.26,0,0,0,.85-1.9c.39-1.22.7-2.47,1.05-3.73h6.8l-.11,1.79-1.9.27-.16,1.88-1.46.21c-.34.65-.48,1.33-.9,1.65a2.28,2.28,0,0,0-.86,2.11q0,10.46,0,20.93c0,.62.08,1.24.12,1.89H176a3,3,0,0,0,.1-.55q0-8.76,0-17.54c0-1.72,0-3.44-.08-5.15a2.31,2.31,0,0,0-.34-1.18c-.45-.7-1-1.33-1.67-2.21l-1.11-.21-.27-1.79-1.76-.33v-1.79h6.54c.38,1.4.73,2.74,1.11,4.07.63,2.21,1.64,3,3.89,3.07,1.64,0,3.29,0,5.09,0v4.84h5.84a18,18,0,0,0,.22-5,2.84,2.84,0,0,0-3.88-2,16.12,16.12,0,0,0-1.92,1.08c-.2-1-1-1-1.83-1-1.12,0-2.25,0-3.38,0-1.48,0-2-.41-2.34-1.87-.24-1-.42-2-.66-3.17Zm-23,31.1c-.69-1.7-.47-3.4-.48-5.08q0-7.17,0-14.33c0-.65-.12-1.29.59-1.86.37-.3.24-1.24.35-2H181.1l-.1,1.91,1.27.57V358Z" transform="translate(-36.38 -224.4)"/><path class="cls-2" d="M130.11,314.29a24.81,24.81,0,0,1-.84,2.48,4.8,4.8,0,0,1-2.36,2.54,1.39,1.39,0,0,0-1,1.47c0,1.12,0,2.23,0,3.48H211.7c0-1.31,0-2.57,0-3.83a1.29,1.29,0,0,0-.63-.86,6.37,6.37,0,0,1-3.34-5.28Z" transform="translate(-36.38 -224.4)"/><path class="cls-2" d="M139.17,281.52h59.32c0-2.4,0-4.69,0-7,0-.69-.55-1-1.16-1.14a7.75,7.75,0,0,0-1.45-.06H141.58c-2.05,0-2.43.39-2.41,2.44C139.18,277.64,139.17,279.51,139.17,281.52Z" transform="translate(-36.38 -224.4)"/><path class="cls-2" d="M227.23,359.27V344.35c.65-.85,1.07-1.43,1.52-2a3.38,3.38,0,0,1,.59-.47,8.64,8.64,0,0,0,.93-.77,1.68,1.68,0,0,1,2.47,0c.65.85,1.59,1.38,2.27,2.25a3.43,3.43,0,0,1,.84,2.27l0,12.07v1.53h4c0-.63.07-1.21.08-1.78,0-4.24,0-8.48,0-12.72a2.62,2.62,0,0,1,.8-2.15,13.36,13.36,0,0,0,1.72-2.1,3.42,3.42,0,0,0,.26-1.11H211.22a8.41,8.41,0,0,0-.14,1.08q0,7.65,0,15.29a3.59,3.59,0,0,0,3.6,3.6h11.11C226.2,359.34,226.61,359.3,227.23,359.27Z" transform="translate(-36.38 -224.4)"/><path class="cls-2" d="M170,235.8c.2-.34.38-.61.52-.9a1.82,1.82,0,0,0-.48-2.29,1.69,1.69,0,0,0-2.08-.21,2,2,0,0,0-.95,2.18c0,.11.08.21.11.31.14.48.55,1.14.37,1.42a4.85,4.85,0,0,1-1.62,1.46,2.85,2.85,0,0,1-1.41.25c-2.84,0-5.68,0-8.53,0-2.07,0-3-1-3.07-3.11,0-.73,0-1.47,0-2.3h-2c-.07.09-.19.17-.2.25-.12,3.69-.43,7.42.95,11a24.83,24.83,0,0,0,2,3.66,2.46,2.46,0,0,0,2.32,1.16c1.93,0,3.86,0,5.8,0,6.49,0,13-.07,19.47,0a3.92,3.92,0,0,0,3.78-2.11,12.83,12.83,0,0,0,1.91-5.42c.28-2.76.28-5.54.41-8.45H185c0,.74-.06,1.46-.1,2.19-.11,2.08-1.16,3.15-3.25,3.18-2.85,0-5.69,0-8.53,0A3.08,3.08,0,0,1,170,235.8Z" transform="translate(-36.38 -224.4)"/><path class="cls-2" d="M190,311.66H206.1c0-.51.1-.93.1-1.34,0-3,0-6,0-9a2.31,2.31,0,0,0-2.6-2.54l-28.35,0c-.32,0-.64,0-1.17.07a38.94,38.94,0,0,0-.07,4.26,14.69,14.69,0,0,0,1.67,1.68,2.68,2.68,0,0,0,1.43.44c3.33,0,6.66,0,10,0H190Z" transform="translate(-36.38 -224.4)"/><path class="cls-2" d="M131.47,311.67h16.11v-6.4h13.68l2.29-2.25v-4.14c-.48-.05-.89-.12-1.3-.12l-28,0c-2.16,0-2.76.61-2.77,2.78,0,2.9,0,5.79,0,8.69Z" transform="translate(-36.38 -224.4)"/><path class="cls-2" d="M250,336.85c.52-3.09-1.3-5.52-4.21-5.76-.64-.06-1.29,0-1.94,0l-30.44,0H211.2v5.74a14.2,14.2,0,0,0,1.49.14q14.42,0,28.84,0h6.76C248.87,336.93,249.44,336.88,250,336.85Z" transform="translate(-36.38 -224.4)"/><path class="cls-2" d="M141.61,267v3.78c1.11.31,52.3.41,54.37.1V267Z" transform="translate(-36.38 -224.4)"/><path class="cls-2" d="M193.84,264.41v-3.89h-50v3.84C145,264.69,192,264.76,193.84,264.41Z" transform="translate(-36.38 -224.4)"/><path class="cls-2" d="M146,252h45.52c0-.45.11-.87.11-1.28q0-10.14,0-20.29a2.68,2.68,0,0,0-.11-1.25,1.49,1.49,0,0,0-1.06-.74c-.34,0-.75.49-.95.86a2.53,2.53,0,0,0-.05,1.11c0,2.46,0,4.93,0,7.4a19.53,19.53,0,0,1-1.88,8.41,12.91,12.91,0,0,1-1.58,2.42,5.88,5.88,0,0,1-4.77,2.27c-1.4,0-2.79,0-4.19,0-6.6,0-13.21-.09-19.81.05a7.06,7.06,0,0,1-6.62-3.74,16.8,16.8,0,0,1-2.39-8.74c0-2.63,0-5.26,0-7.89a6.86,6.86,0,0,0,0-1.28.94.94,0,0,0-1.16-.84,2.2,2.2,0,0,0-1,.88c-.13.18-.05.52-.05.79q0,10.23,0,20.45C146,251,146,251.45,146,252Z" transform="translate(-36.38 -224.4)"/><path class="cls-2" d="M169.7,290.44a4.87,4.87,0,0,0,.43,1.31c1.25,1.52,2.55,3,3.92,4.59h28.5a21.81,21.81,0,0,0,.08-5c0-.33-.57-.7-.95-.92a2,2,0,0,0-1-.07H170.81C170.54,290.39,170.28,290.42,169.7,290.44Z" transform="translate(-36.38 -224.4)"/><path class="cls-2" d="M163.62,296.3c1.36-1.61,2.63-3.11,3.89-4.63a1.69,1.69,0,0,0,.28-.57,2.49,2.49,0,0,0,0-.59c-.46,0-.92-.1-1.38-.1l-29.32-.05c-1.9,0-2.11.2-2.14,2.14,0,1.22,0,2.45,0,3.8Z" transform="translate(-36.38 -224.4)"/><path class="cls-2" d="M191.65,254.48H146c0,.59-.06,1.06-.07,1.53,0,.63,0,1.27,0,2h45.7v-3.54Z" transform="translate(-36.38 -224.4)"/><path class="cls-2" d="M123.37,321.47c0-.4.1-.72.13-1a4,4,0,0,1,2.43-3.34c1.2-.58,1.18-.62,1.57-2.12a3.61,3.61,0,0,0-.72-.12c-6.16,0-12.32-.05-18.48,0a9.9,9.9,0,0,0-7.84,3.8A7.84,7.84,0,0,0,99,321.47Z" transform="translate(-36.38 -224.4)"/><path class="cls-2" d="M150,307.54v4c1.08.34,34.64.49,37.39.17a8.54,8.54,0,0,0,.06-4.13Z" transform="translate(-36.38 -224.4)"/><path class="cls-2" d="M210.32,315c.17.93.32,1.69,1.16,2.11,1.73.88,3,2.11,2.71,4.38h24.56a22.43,22.43,0,0,0-1.27-2.33,9.58,9.58,0,0,0-7.91-4.25c-6.21-.08-12.43,0-18.65,0A4.29,4.29,0,0,0,210.32,315Z" transform="translate(-36.38 -224.4)"/><path class="cls-2" d="M224.23,323.83c-.82,1.39-1.16,1.42-2.18.39a1.19,1.19,0,0,0-.8-.34c-2.25,0-4.49,0-6.65,0a10.14,10.14,0,0,1-1.34,2.07,9.44,9.44,0,0,1-2.18,1.05l-.09,1.77c10.14,0,20.17,0,30.39,0v-4.69a3.8,3.8,0,0,0-.81-.2q-3.62,0-7.23,0c-.46,0-.88-.07-1.12.6a.77.77,0,0,1-1.37.06c-.23-.74-.69-.69-1.21-.69Z" transform="translate(-36.38 -224.4)"/><path class="cls-2" d="M167.47,287.91c.3-1.3-.33-2.74,1.24-3.83H137.46v3.75C138.42,288.15,165.22,288.26,167.47,287.91Z" transform="translate(-36.38 -224.4)"/><path class="cls-2" d="M169.11,284.06c1.37,1.14.82,2.52,1,3.72,1.23.37,28.06.48,30.18.12,0-.93,0-1.88,0-2.83a7.28,7.28,0,0,0-.15-1Z" transform="translate(-36.38 -224.4)"/><path class="cls-2" d="M123.23,323.85c-2.26,0-4.4,0-6.54,0a1.2,1.2,0,0,0-.73.42c-.67.76-1,.76-1.64,0a1.42,1.42,0,0,0-.87-.45c-1.83,0-3.65-.08-5.47,0a6.44,6.44,0,0,0-1.8.66c-.48-.87-1.47-.67-2.4-.68H96.12v2.91c1.54,0,3,0,4.5,0,1.08,0,2.17-.14,2.8,1.08.1.2.55.28.84.3a212.41,212.41,0,0,0,21.85.59,2.16,2.16,0,0,0,.42-.11v-1.83A3.28,3.28,0,0,1,123.23,323.85Z" transform="translate(-36.38 -224.4)"/><path class="cls-2" d="M165.65,303.78h1.89V301c0-.37,0-.75,0-1.12.05-1.1.41-1.54,1.21-1.53s1.29.57,1.3,1.65c0,.81,0,1.61,0,2.41,0,.42.06.84.09,1.35.35,0,.66.1,1,.11s.53,0,.92-.07c0-1.95.06-3.86,0-5.76a2.13,2.13,0,0,0-1.49-1.75,4.4,4.4,0,0,0-3.45,0,2,2,0,0,0-1.36,2C165.65,300.07,165.65,301.84,165.65,303.78Z" transform="translate(-36.38 -224.4)"/><path class="cls-2" d="M246,348.42h-2.33v10.82H246Z" transform="translate(-36.38 -224.4)"/><path class="cls-2" d="M119.66,331.48l6.53,5.73.33-.15c0-.93,0-1.87.06-2.8s0-1.91,0-3h-6.7Z" transform="translate(-36.38 -224.4)"/><path class="cls-2" d="M148,355.05v2.18c1.78,0,3.48,0,5.17,0,.68,0,.84-.57.84-1.15s-.24-1.17-.85-1.17C151.46,354.88,149.76,355,148,355.05Z" transform="translate(-36.38 -224.4)"/><path class="cls-2" d="M249.8,340.79l.12-1.33H245l-.1,1.33Z" transform="translate(-36.38 -224.4)"/><path class="cls-2" d="M242.76,343c-.11.51-.11,1,.58,1a30.64,30.64,0,0,0,3.18,0c.26,0,.49-.5.8-.84A9.6,9.6,0,0,0,242.76,343Z" transform="translate(-36.38 -224.4)"/><path class="cls-2" d="M246.72,346.08a5.48,5.48,0,0,0-3.79-.37,2,2,0,0,0,0,.73A5.4,5.4,0,0,0,246.72,346.08Z" transform="translate(-36.38 -224.4)"/><path class="cls-2" d="M167.94,294.17c.24.08.49.25.72.22s.38-.25.48-.44-.18-.38-.31-.39a1.61,1.61,0,0,0-.64.17Z" transform="translate(-36.38 -224.4)"/><path class="cls-2" d="M70.28,360.44A2.42,2.42,0,0,0,72.54,358a2.35,2.35,0,0,0-2.22-2.27,2.4,2.4,0,0,0-2.35,2.5A2.33,2.33,0,0,0,70.28,360.44Z" transform="translate(-36.38 -224.4)"/><path class="cls-2" d="M134,355.73a2.48,2.48,0,0,0-2.31,2.42,2.33,2.33,0,0,0,4.66-.07A2.41,2.41,0,0,0,134,355.73Z" transform="translate(-36.38 -224.4)"/><path class="cls-3" d="M57.18,339.9,48.44,348v0a11.63,11.63,0,0,1,8-1.42c4.31.7,7.11,4.52,7.11,4.52l-13.25-2.68a9.8,9.8,0,0,1,5.64,4.11c2.3,3.71.11,8.92.11,8.92l-7.26-12.76a29.1,29.1,0,0,0,.73,6.55,48.34,48.34,0,0,0,2.1,6.88c.38,1,.8,2,1.25,3l-2.6,1.49c-.4-1.23-.76-2.46-1.07-3.71a50.53,50.53,0,0,1-1.31-7.4,30.44,30.44,0,0,1,0-6.61l-7.26,12.5a10.35,10.35,0,0,1,.1-8.75,7.6,7.6,0,0,1,3-3l-6.18,2.16a8.21,8.21,0,0,1,4.8-4.18,8.83,8.83,0,0,1,2.94-.4l-8.92-2.29s4-2.28,7.25-1.12a7.76,7.76,0,0,1,4.42,3.46,18.33,18.33,0,0,1-.58-6.52c.41-5.31,2.76-7.93,2.76-7.93l-1.75,14.85a11.07,11.07,0,0,1,3-4.93A11.92,11.92,0,0,1,57.18,339.9Z" transform="translate(-36.38 -224.4)"/><path class="cls-3" d="M50.78,370.49l-.7,0c0-.1-.11-.19-.17-.29l.45,0,.37-4.56c.43-3.18.75-6.37,1.26-9.53s1-6.33,1.76-9.45l1-4.68L56,337.41a127.29,127.29,0,0,1,6.46-18,94.66,94.66,0,0,1,4.38-8.5,59.44,59.44,0,0,1,3.91-6L39.06,323.29s.75-12.57,11.29-19.25a19.57,19.57,0,0,1,10.34-2.77l-16.32-3a20.91,20.91,0,0,1,15.91-3.15,22,22,0,0,1,7,2.83L50.45,281.56s11.64,0,17.46,6.69c4.73,5.46,5.43,10.53,5.39,13.25a46.77,46.77,0,0,1,7-15.16c7.61-11.23,16.12-14,16.12-14L73.74,302.92c1.71-1.63,6.64-5.88,12.76-7.17a30.49,30.49,0,0,1,16.35,1L73.3,303.53l0,0a29.69,29.69,0,0,1,19.39,6.94c8.65,7,10,19,10,19L76.83,306.85A24.91,24.91,0,0,1,84,323c.41,11.11-11,19.87-11,19.87l.1-37.5a55.29,55.29,0,0,0-3.48,6.87,90.74,90.74,0,0,0-3.2,8.61,123.58,123.58,0,0,0-4.06,17.9l-.64,4.54-.44,4.56c-.36,3-.4,6.1-.58,9.14s0,6.11-.09,9.15l.16,4.32Z" transform="translate(-36.38 -224.4)"/><path class="cls-3" d="M214.42,361.69c.33,1.19.63,2.24,1,3.47h-2.82c-.06-.37-.12-.73-.16-1.08-.25-1.84-.77-2.31-2.6-2.31h-35l-22.72,0H150c-.06,1.18-.12,2.22-.18,3.49-4.37.11-8.67.1-13-.11a9.39,9.39,0,0,0,4.35-5.14c1.14-.21,2.26-.38,3.35-.63,1.9-.44,2.32-1,2.4-2.85,0-.43,0-.86,0-1.29.06-1.49.17-1.6,1.72-1.63,1.23,0,2.46,0,3.7,0a9.58,9.58,0,0,0,.23-4.58,3.75,3.75,0,0,0-2.63-3,50.59,50.59,0,0,0-5.92-1.45c-6.55-1.18-13.11-2.29-19.67-3.39a4.23,4.23,0,0,1-2.23-1.14c-2.28-2.12-4.62-4.18-6.86-6.34a10.63,10.63,0,0,0-7.41-3c-5.9-.11-11.81-.17-17.72-.25H88.31c-.07-.8-.13-1.47-.2-2.22a10.34,10.34,0,0,1,1.06-.11c3.49,0,7,0,10.48,0,1.76,0,1.76,0,2.58,1.63.49-.16.83-.38.69-1s-.34-1.39-1.17-1.56a8.64,8.64,0,0,0-1.44-.08l-10.47-.14H88.1c0-.84-.08-1.52-.11-2.21-.08-1.71-.16-3.43-.23-5.15,0-.56-.18-.95-1.05-.74-.17,2.58.16,5.22.2,8.06-1.07,0-2,0-3,0A3,3,0,0,0,81,328.74a7.79,7.79,0,0,0-.18,2.28s0,.12-.11.14c-4.78,1.35-8.78,4.22-13,6.65a123.54,123.54,0,0,0-13.88,9.63c-1.12.86-1.82,1.78-1.39,3.27a6.83,6.83,0,0,1,.12,1.44c.11,1.38.23,1.5,1.67,1.55.59,0,1.18,0,1.77,0a.91.91,0,0,1,1,1c0,.64,0,1.29,0,1.93a2.13,2.13,0,0,0,1.66,2.42,16.77,16.77,0,0,0,3,.58,1.73,1.73,0,0,1,1.7,1.15A8.11,8.11,0,0,0,67.65,365a4.66,4.66,0,0,1-2.41.31c-5.14,0-10.29,0-15.43,0,0,1.73,0,3.46,0,5.19l29.29,0h173.3v-8.82Zm-79.19-12.05c3.91.33,7.31,3.7,7.14,7.2-1.09.15-1-.71-1.24-1.23A7.6,7.6,0,0,0,129,352.77a7.29,7.29,0,0,0-2.24,3.46c-.22.76-.61.91-1.26.52C126.12,352.2,130.25,349.22,135.23,349.64Zm-19.95-11.32a.93.93,0,0,1,.61-.57c.88-.14,2.32,1.43,2.18,2.3a1.5,1.5,0,0,1-1.76,1.22c-.91-.07-1.19-.48-1.15-1.83A4.36,4.36,0,0,1,115.28,338.32Zm-14.45-3.24a1.52,1.52,0,0,1,1.69-1.54c2.3,0,4.61-.1,6.91,0,2,.1,3.26,1.48,4.51,2.82a1,1,0,0,1,.17.6c0,1.38,0,2.76,0,4.38-4.47,0-8.77,0-13.15,0A22.48,22.48,0,0,1,100.83,335.08ZM106.2,343c-.3.43-.45.87-.63.88-1.27.07-2.55.08-3.82,0-.2,0-.38-.43-.79-.91ZM84.39,328H87a9.35,9.35,0,0,1,.1,1c0,.37,0,.74,0,1.24l-4.71.59C81.91,328.64,82.35,328.07,84.39,328Zm-2.58,8.9c0-2,.42-2.34,2.36-2.76,3.6-.78,7.24-.62,10.87-.63a8.76,8.76,0,0,1,1.45,0c.92.13,1.43.58,1.45,1.43.06,1.76,0,3.53,0,5.29a.92.92,0,0,1-1,1l-1,0-12.69,0c-.42,0-.84-.07-1.52-.13C81.81,339.68,81.79,338.3,81.81,336.93Zm-7.07.61a1.43,1.43,0,0,1,.51-.93,9.15,9.15,0,0,1,5-1.68,20.42,20.42,0,0,1,0,6.34H74.72C74.72,340,74.68,338.75,74.74,337.54Zm5.79,6a8.09,8.09,0,0,1-4.84.13c0-.19.08-.55.15-.56,1.1-.1,2.2-.18,3.3-.2C79.63,342.88,80.24,342.71,80.53,343.52ZM63.38,355.33a6.79,6.79,0,0,1-.51,1.17c-.14.22-.47.33-.72.48-.12-.26-.35-.51-.34-.77a3.5,3.5,0,0,1,.27-1.08,8.54,8.54,0,0,1,8.1-5.52,8.84,8.84,0,0,1,8.33,5.5,14.4,14.4,0,0,1,.4,1.76c-1.18.27-1.34-.36-1.56-1a7.39,7.39,0,0,0-6.79-5A7.5,7.5,0,0,0,63.38,355.33ZM66,358a4.21,4.21,0,1,1,4.17,4.17A4.11,4.11,0,0,1,66,358Zm6.81,7.15a9.36,9.36,0,0,0,4.63-5.28c4.08-.36,48.08-.19,49.4.18,1.08,2.59,1.13,2.65,4.9,5.26C111.91,365.33,92.4,365.31,72.83,365.15Zm57-7.2a4.12,4.12,0,0,1,4.05-4,4.24,4.24,0,0,1,4.26,4.15A4.29,4.29,0,0,1,134,362.2,4.24,4.24,0,0,1,129.85,358Z" transform="translate(-36.38 -224.4)"/><text class="cls-4" transform="translate(234.49 106.37)">DIVYA DESAN</text><rect class="cls-2" x="239.86" y="118.45" width="543.89" height="27.67"/><text class="cls-5" transform="translate(371.43 139.54) scale(1.22 1)">TR<tspan class="cls-6" x="65.15" y="0">A</tspan><tspan class="cls-7" x="100.06" y="0">VELS</tspan></text><circle class="cls-2" cx="108.75" cy="250.59" r="22.2" transform="translate(-192.77 91.93) rotate(-80.46)"/><polygon class="cls-2" points="130.69 5.54 132.3 0 134.03 5.54 130.69 5.54"/><path d="M122.55,260.5a10.69,10.69,0,0,0-5.62,1.52,11.15,11.15,0,0,0-11.24,0,9.49,9.49,0,0,1,5.62-.38,13.11,13.11,0,0,1,5.62,2.67,13.11,13.11,0,0,1,5.62-2.67,9.49,9.49,0,0,1,5.62.38A10.69,10.69,0,0,0,122.55,260.5Z" transform="translate(-36.38 -224.4)"/><path d="M137.14,251.65a10.69,10.69,0,0,0-5.62,1.52,11.11,11.11,0,0,0-11.22,0,9.47,9.47,0,0,1,5.61-.38,13.09,13.09,0,0,1,5.61,2.66,13.17,13.17,0,0,1,5.62-2.66,9.47,9.47,0,0,1,5.61.38A10.67,10.67,0,0,0,137.14,251.65Z" transform="translate(-36.38 -224.4)"/><path d="M107.74,254.25a9.23,9.23,0,0,0-4.87,1.32,9.68,9.68,0,0,0-9.76,0,8.24,8.24,0,0,1,4.88-.33,11.41,11.41,0,0,1,4.88,2.32,11.33,11.33,0,0,1,4.87-2.32,8.22,8.22,0,0,1,4.88.33A9.25,9.25,0,0,0,107.74,254.25Z" transform="translate(-36.38 -224.4)"/><path d="M112.54,257.13a2.82,2.82,0,0,0-1.46.39,2.89,2.89,0,0,0-2.9,0,2.41,2.41,0,0,1,1.45-.1,3.38,3.38,0,0,1,1.45.69,3.46,3.46,0,0,1,1.46-.69,2.43,2.43,0,0,1,1.45.1A2.8,2.8,0,0,0,112.54,257.13Z" transform="translate(-36.38 -224.4)"/><path d="M124.3,256.65a4.75,4.75,0,0,0-2.5.68,5,5,0,0,0-5,0,4.22,4.22,0,0,1,2.51-.17,5.8,5.8,0,0,1,2.5,1.18,5.8,5.8,0,0,1,2.5-1.18,4.17,4.17,0,0,1,2.5.17A4.7,4.7,0,0,0,124.3,256.65Z" transform="translate(-36.38 -224.4)"/><rect x="38.96" y="118.47" width="5.69" height="1.23" rx="0.61"/><rect x="64.45" y="118.33" width="5.69" height="1.23" rx="0.61"/></svg>